<svg width="21" height="21" viewBox="0 0 21 21" fill="none" xmlns="http://www.w3.org/2000/svg">
<path d="M10.5 1.75C5.67525 1.75 1.75 5.67525 1.75 10.5C1.75 15.3247 5.67525 19.25 10.5 19.25C15.3247 19.25 19.25 15.3247 19.25 10.5C19.25 5.67525 15.3247 1.75 10.5 1.75ZM13.5564 7C13.7308 6.99554 13.9044 7.02607 14.0669 7.08976C14.2294 7.15346 14.3775 7.24905 14.5024 7.37088C14.6273 7.49272 14.7266 7.63834 14.7944 7.79916C14.8622 7.95998 14.8971 8.13274 14.897 8.30726C14.8969 8.48178 14.8619 8.65452 14.7941 8.81529C14.7262 8.97606 14.6268 9.12162 14.5018 9.24337C14.3767 9.36513 14.2286 9.46061 14.0661 9.5242C13.9036 9.58779 13.73 9.6182 13.5555 9.61363C13.2148 9.60469 12.891 9.46304 12.6532 9.21884C12.4154 8.97465 12.2824 8.64723 12.2825 8.30639C12.2826 7.96554 12.4159 7.63821 12.6538 7.39418C12.8918 7.15014 13.2156 7.0087 13.5564 7ZM7.4375 7C7.60992 7.00006 7.78064 7.03407 7.93991 7.10011C8.09918 7.16614 8.24388 7.2629 8.36576 7.38486C8.48764 7.50682 8.5843 7.65159 8.65023 7.8109C8.71615 7.97022 8.75006 8.14096 8.75 8.31338C8.74994 8.48579 8.71593 8.65651 8.64989 8.81578C8.58386 8.97505 8.4871 9.11976 8.36514 9.24163C8.24318 9.36351 8.09841 9.46017 7.9391 9.5261C7.77978 9.59203 7.60904 9.62593 7.43662 9.62588C7.08841 9.62576 6.75451 9.48732 6.50837 9.24101C6.26222 8.99471 6.12401 8.66071 6.12413 8.3125C6.12424 7.96429 6.26268 7.63038 6.50899 7.38424C6.75529 7.1381 7.08929 6.99988 7.4375 7ZM10.5 15.75C6.125 15.75 5.25 11.375 5.25 11.375H15.75C15.75 11.375 14.875 15.75 10.5 15.75Z" fill="white"/>
</svg>
